<svg xmlns="http://www.w3.org/2000/svg" viewBox="0 0 413.95 544.71"><defs><style>.cls-1{fill:#000999;}.cls-2{fill:#fff;}</style></defs><g id="Слой_2" data-name="Слой 2"><g id="Слой_1-2" data-name="Слой 1"><path class="cls-1" d="M206,544.71c-28.09-34.11-55.69-66.37-81.87-99.74C84.26,394.22,48.81,340.74,19.57,282.88-39.15,166.67,42.39,33.32,156.23,6,277.47-23,394.66,56.33,412.42,179.81c4.81,33.43-2.14,64.66-15.46,95.05-23,52.57-54.21,100.25-89,145.45-30.45,39.52-63,77.45-94.59,116.07C211.57,538.54,209.63,540.57,206,544.71Z"/><path class="cls-2" d="M71.22,168.52v24.54H59.94V123.29H79a15.81,15.81,0,0,1,13.22,6.42q4.92,6.42,4.92,16.68t-4.87,16.19q-4.86,5.94-13.5,5.94Zm0-11.73H79a5.66,5.66,0,0,0,5-2.64c1.18-1.76,1.76-4.31,1.76-7.67a16.47,16.47,0,0,0-1.8-8.31A5.54,5.54,0,0,0,79.08,135H71.22Z"/><path class="cls-2" d="M119.18,167.57h-5.6v25.49H102.3V123.29h18q8.47,0,13.09,5.49T138,144.37q0,13.9-8.1,19.46l9.78,28.56v.67H127.57Zm-5.6-11.74H120A5.52,5.52,0,0,0,125,153a14.39,14.39,0,0,0,1.69-7.5q0-10.49-6.56-10.49h-6.59Z"/><path class="cls-2" d="M157.36,193.06H146.09V123.29h11.27Z"/><path class="cls-2" d="M181.4,123.29l10.54,50.46,10.51-50.46h14.73v69.77H205.86V174.18l1-29.09-11.16,48h-7.67l-11.16-48,1,29.09v18.88H166.67V123.29Z"/><path class="cls-2" d="M252.94,178.78H237.56l-3,14.28H222.64l17.45-69.77H250.4L268,193.06h-12ZM240,167h10.43l-5.21-24.87Z"/><path class="cls-2" d="M87.44,266.27H69.2V291H57.46V230.4H89.63v10.2H69.2v15.51H87.44Z"/><path class="cls-2" d="M107.23,291H95.5V230.4h11.73Z"/><path class="cls-2" d="M157.3,291H145.57l-17.16-39.73V291H116.67V230.4h11.74l17.2,39.78V230.4H157.3Z"/><path class="cls-2" d="M194.28,264.77H176v16.06h21.64V291H164.27V230.4h33.29v10.2H176v14.31h18.28Z"/><path class="cls-2" d="M226.47,275.09a7.79,7.79,0,0,0-1.81-5.6q-1.82-1.89-6.61-3.93-8.73-3.45-12.57-8.09a16.73,16.73,0,0,1-3.83-11,15.66,15.66,0,0,1,5.21-12.29q5.2-4.64,13.23-4.64a19.17,19.17,0,0,1,9.54,2.35,16,16,0,0,1,6.44,6.64,20.48,20.48,0,0,1,2.26,9.73h-11.7c0-2.83-.57-5-1.73-6.47a6,6,0,0,0-5-2.22,6.13,6.13,0,0,0-4.79,1.89,7.32,7.32,0,0,0-1.72,5.1,6.38,6.38,0,0,0,1.92,4.51,21.82,21.82,0,0,0,6.78,4.18q8.5,3.21,12.36,7.87A18,18,0,0,1,238.29,275q0,7.9-4.83,12.36t-13.13,4.45a21.86,21.86,0,0,1-10.26-2.41,17.6,17.6,0,0,1-7.24-6.91,20.64,20.64,0,0,1-2.62-10.61H212q0,5.25,1.95,7.62c1.31,1.58,3.43,2.37,6.39,2.37Q226.48,281.87,226.47,275.09Z"/><path class="cls-2" d="M281.25,240.6H266.89V291H255.11V240.6H241V230.4h40.27Z"/><path class="cls-2" d="M303.15,268.85h-5.83V291H285.59V230.4h18.72q8.82,0,13.62,4.77t4.81,13.54q0,12.06-8.42,16.89l10.18,24.8V291H311.89Zm-5.83-10.2H304a6.06,6.06,0,0,0,5.26-2.43,10.9,10.9,0,0,0,1.76-6.51q0-9.12-6.82-9.11h-6.87Z"/><path class="cls-2" d="M356.09,278.58h-16L337,291H324.56l18.16-60.58h10.74L371.74,291H359.2Zm-13.45-10.19H353.5l-5.43-21.6Z"/></g></g></svg>