<svg xmlns="http://www.w3.org/2000/svg" viewBox="0 0 1821.06 1123.46"><defs><style>.cls-1{fill:#000999;}.cls-2{fill:#fff;}</style></defs><g id="Слой_2" data-name="Слой 2"><g id="Слой_1-2" data-name="Слой 1"><polygon points="520.47 0 520.59 0.32 520.28 0.28 520.47 0"/><polygon points="522.55 0.01 522.66 0.32 522.36 0.28 522.55 0.01"/><polygon points="524.62 0.03 524.72 0.32 524.45 0.28 524.62 0.03"/><path className="cls-1" d="M332.8,975.6C453,896.54,1168.15,449.49,1214.73,420.38a16.92,16.92,0,0,1,5.12-2.12l601.21-141.18L468.9,1120.92a16.87,16.87,0,0,1-20.79-2.35L330.2,1001.7A16.89,16.89,0,0,1,332.8,975.6Z"/><path className="cls-2" d="M846.33,707.52h86.06a2.38,2.38,0,0,0,1.25-.35l399.88-248.91a2.37,2.37,0,0,0-1.76-4.32l-125.52,27.43a2.34,2.34,0,0,0-.73.3L845.1,703.14A2.36,2.36,0,0,0,846.33,707.52Z"/><path className="cls-2" d="M1378.11,443,1513,415.27a2.36,2.36,0,0,1,1.73,4.32L1057.1,707.16a2.3,2.3,0,0,1-1.25.36h-90.8a2.36,2.36,0,0,1-1.26-4.36l413.54-259.85A2.4,2.4,0,0,1,1378.11,443Z"/><path className="cls-2" d="M809.45,725.46l87.82-.38a2.36,2.36,0,0,1,1.27,4.36L544.07,952.31a2.35,2.35,0,0,1-2.71-.14L502,921.48a2.37,2.37,0,0,1,.2-3.87L808.2,725.82A2.33,2.33,0,0,1,809.45,725.46Z"/><path className="cls-2" d="M923.33,725h95.82a2.37,2.37,0,0,1,1.26,4.37L598.72,995.26a2.35,2.35,0,0,1-2.72-.14l-40.7-31.94a2.37,2.37,0,0,1,.19-3.86L922.06,725.41A2.38,2.38,0,0,1,923.33,725Z"/><path d="M36.64,221v65.35H6.6V100.48H57.27q22.07,0,35.19,17.1T105.59,162q0,27.32-13,43.14T56.66,221Zm0-31.27H57.27a15.07,15.07,0,0,0,13.28-7q4.7-7,4.7-20.42,0-13.92-4.8-22.15t-12.87-8.36H36.64Z"/><path d="M164.39,218.42H149.47v67.9h-30V100.48h47.91q22.58,0,34.89,14.61t12.31,41.55q0,37-21.56,51.82l26,76.08v1.78H186.76Zm-14.92-31.27h17.06q9,0,13.49-7.47t4.49-20q0-27.94-17.47-27.95H149.47Z"/><path d="M266.1,286.32h-30V100.48h30Z"/><path d="M330.13,100.48l28.09,134.4,28-134.4h39.23V286.32H395.3V236l2.76-77.48L368.33,286.32H347.9L318.18,158.55,320.93,236v50.29h-30V100.48Z"/><path d="M520.69,248.29h-41l-8,38H440l46.48-185.84H514l46.79,185.84H528.66ZM486.27,217h27.78l-13.89-66.24Z"/><path d="M79.84,481.33H31.26v65.83H0V385.8H85.69V413H31.26v41.34H79.84Z"/><path d="M132.58,547.16H101.32V385.8h31.26Z"/><path d="M266,547.16H234.7L189,441.32V547.16H157.73V385.8H189l45.82,106V385.8H266Z"/><path d="M364.46,477.34H315.77v42.78h57.62v27H284.51V385.8h88.67V413H315.77v38.13h48.69Z"/><path d="M450.21,504.83q0-9.87-4.84-14.91t-17.6-10.47q-23.28-9.19-33.48-21.56a44.4,44.4,0,0,1-10.21-29.2q0-20.38,13.87-32.75t35.25-12.36a51.13,51.13,0,0,1,25.41,6.26,42.65,42.65,0,0,1,17.17,17.68,54.91,54.91,0,0,1,6,25.93H450.63q0-11.29-4.62-17.23t-13.34-5.93q-8.19,0-12.76,5t-4.57,13.58a17.09,17.09,0,0,0,5.1,12q5.1,5.37,18.07,11.13,22.65,8.54,32.91,20.95t10.26,31.59q0,21.06-12.87,32.91t-35,11.86A58.15,58.15,0,0,1,406.51,543a47,47,0,0,1-19.29-18.39q-7-12-7-28.27h31.37q0,14,5.2,20.29t17,6.31Q450.21,522.89,450.21,504.83Z"/><path d="M596.13,413H557.86V547.16H526.49V413H488.86V385.8H596.13Z"/><path d="M654.45,488.2H638.93v59H607.67V385.8h49.86q23.49,0,36.31,12.69t12.81,36.07q0,32.15-22.43,45l27.11,66.05v1.55h-33.6Zm-15.52-27.15h17.75q9.36,0,14-6.48t4.68-17.35q0-24.27-18.18-24.27H638.93Z"/><path d="M795.48,514.14H752.85l-8.29,33H711.49L759.87,385.8h28.59l48.7,161.36H803.77ZM759.65,487h28.92l-14.46-57.52Z"/><path d="M708.27,1084.71v-50.45H718.9l17.62,41,17.61-41h10.59v50.45h-6.8v-43l-18.47,43h-5.91l-18.42-43v43Z"/><path d="M828.85,1034.26v50.45H822v-8.87a26,26,0,0,1-8.49,7.75,23.29,23.29,0,0,1-10.88,2.34,28.36,28.36,0,0,1-13.9-3.4,25,25,0,0,1-9.71-9.42,26.23,26.23,0,0,1-3.51-13.49,26.94,26.94,0,0,1,3.47-13.56,25.17,25.17,0,0,1,9.55-9.55,26.88,26.88,0,0,1,13.56-3.47,25,25,0,0,1,11.37,2.41,24,24,0,0,1,8.54,7.73v-8.92Zm-26.85,5a18.62,18.62,0,0,0-13.83,5.85,20.54,20.54,0,0,0,.13,28.58,19.35,19.35,0,0,0,14.24,5.88,18.45,18.45,0,0,0,13.85-5.83,20,20,0,0,0,5.61-14.44,19.55,19.55,0,0,0-20-20Z"/><path d="M885.45,1084.71H878.6V1062.1H848.38v22.61h-6.85v-50.45h6.85v21.67H878.6v-21.67h6.85Z"/><path d="M940.66,1069.85h7.75a45.11,45.11,0,0,1-4,6.42,22.74,22.74,0,0,1-4.32,4.21,25.86,25.86,0,0,1-16.44,5.45,28.34,28.34,0,0,1-14-3.49,26,26,0,0,1-13.51-23.09,25.57,25.57,0,0,1,3.58-13.29,25.9,25.9,0,0,1,9.8-9.52,28.41,28.41,0,0,1,28.94,1,25.67,25.67,0,0,1,9.8,12.08h-7.66a21.07,21.07,0,0,0-7.43-7.62,19.52,19.52,0,0,0-10.09-2.65,19.23,19.23,0,0,0-14.22,5.85,19.66,19.66,0,0,0-5.78,14.37,19.31,19.31,0,0,0,5.87,14.26,19.66,19.66,0,0,0,14.4,5.83,18.51,18.51,0,0,0,9.34-2.25A27.41,27.41,0,0,0,940.66,1069.85Z"/><path d="M1010.33,1034.26v50.45h-6.85v-8.87a25.76,25.76,0,0,1-8.49,7.75,23.29,23.29,0,0,1-10.88,2.34,28.39,28.39,0,0,1-13.9-3.4,24.89,24.89,0,0,1-9.7-9.42,26.14,26.14,0,0,1-3.52-13.49,26.94,26.94,0,0,1,3.47-13.56,25.24,25.24,0,0,1,9.55-9.55,26.91,26.91,0,0,1,13.56-3.47,24.91,24.91,0,0,1,11.37,2.41,24,24,0,0,1,8.54,7.73v-8.92Zm-26.85,5a18.62,18.62,0,0,0-13.83,5.85,20.53,20.53,0,0,0,.14,28.58,19.33,19.33,0,0,0,14.23,5.88,18.44,18.44,0,0,0,13.85-5.83,20,20,0,0,0,5.61-14.44,19.55,19.55,0,0,0-20-20Z"/><path d="M1023,1034.26h6.85v8.65a20.68,20.68,0,0,1,8.22-7.34,25.74,25.74,0,0,1,11.6-2.53,26.78,26.78,0,0,1,13.51,3.47,25.41,25.41,0,0,1,9.58,9.53,26.62,26.62,0,0,1,3.49,13.49,26.12,26.12,0,0,1-3.52,13.4,25.34,25.34,0,0,1-9.66,9.53,27.17,27.17,0,0,1-13.58,3.47,24.54,24.54,0,0,1-11.28-2.55,22.26,22.26,0,0,1-8.36-7.36v26.4H1023Zm26.13,5a18.87,18.87,0,0,0-14.05,5.85,19.78,19.78,0,0,0-5.73,14.37,20,20,0,1,0,40,.18,19.94,19.94,0,0,0-5.7-14.66A19.52,19.52,0,0,0,1049.14,1039.31Z"/><path d="M1129.76,1084.71h-44.29l-2.52,11.63h-4.68v-17.8h6.53l18.92-44.28h7.75l18.92,44.28h6.53v17.8h-4.69Zm-6.58-6.17L1107.59,1042,1092,1078.54Z"/><path d="M1189.33,1084.71h-6.84V1062.1h-30.23v22.61h-6.85v-50.45h6.85v21.67h30.23v-21.67h6.84Z"/><path d="M1222.79,1054.44q7.83,0,12.59,4.26a14.84,14.84,0,0,1,0,21.76q-4.76,4.24-12.59,4.25H1202v-50.45h6.85v20.18Zm-13.92,6.17v17.93H1221q12.17,0,12.16-9t-12.16-9Zm44.19-26.35v50.45h-6.85v-50.45Z"/><path d="M1316.28,1061.74h-45.63a17.86,17.86,0,0,0,6.13,12.68,19.41,19.41,0,0,0,13.51,5.2,19,19,0,0,0,10.63-3.17,17.83,17.83,0,0,0,7-8.36H1315a26.38,26.38,0,0,1-9.55,12.91,24.82,24.82,0,0,1-15,4.93,26.84,26.84,0,0,1-10.45-2.07,25.54,25.54,0,0,1-14.14-14.15,26.63,26.63,0,0,1-2.08-10.45,26.13,26.13,0,0,1,3.47-13.24,25.47,25.47,0,0,1,9.46-9.51,25.93,25.93,0,0,1,13.2-3.47,26.68,26.68,0,0,1,13.76,3.7,25.1,25.1,0,0,1,11.92,16.6A43.72,43.72,0,0,1,1316.28,1061.74Zm-45.45-6.17h38.65a21,21,0,0,0-7-11.89,19,19,0,0,0-12.59-4.37,18.57,18.57,0,0,0-12.43,4.48A19.8,19.8,0,0,0,1270.83,1055.57Z"/><path d="M1378.28,1033a25.86,25.86,0,0,1,13.26,3.45,24.5,24.5,0,0,1,9.28,9.53,27.64,27.64,0,0,1,3.36,13.6q0,11.36-7.3,18.83a24.65,24.65,0,0,1-18.42,7.48,28,28,0,0,1-13.79-3.42,25,25,0,0,1-9.66-9.46,26.5,26.5,0,0,1-3.49-13.52q0-11.49,7.57-19T1378.28,1033Zm-.55,6.27a18.23,18.23,0,0,0-13.78,5.78,20.3,20.3,0,0,0-5.5,14.53,19.5,19.5,0,0,0,5.64,14.33,19.16,19.16,0,0,0,14.19,5.67A18.08,18.08,0,0,0,1392,1074q5.34-5.61,5.34-14.31,0-8.91-5.5-14.66A18.59,18.59,0,0,0,1377.73,1039.31Z"/><path d="M1415,1034.26h6.85v22.48l23.06-22.48h8.83l-25.18,24.42,25.18,26h-8.92l-23-23.78v23.78H1415Z"/><path d="M1505,1084.71h-6.85V1062.1h-30.22v22.61h-6.85v-50.45h6.85v21.67h30.22v-21.67H1505Z"/><path d="M1569.08,1034.26v50.45h-6.84v-8.87a25.88,25.88,0,0,1-8.5,7.75,23.22,23.22,0,0,1-10.87,2.34,28.36,28.36,0,0,1-13.9-3.4,24.92,24.92,0,0,1-9.71-9.42,26.23,26.23,0,0,1-3.51-13.49,26.84,26.84,0,0,1,3.47-13.56,25.17,25.17,0,0,1,9.55-9.55,26.88,26.88,0,0,1,13.56-3.47,25,25,0,0,1,11.37,2.41,24.06,24.06,0,0,1,8.54,7.73v-8.92Zm-26.84,5a18.62,18.62,0,0,0-13.83,5.85,20.52,20.52,0,0,0,.13,28.58,19.34,19.34,0,0,0,14.24,5.88,18.45,18.45,0,0,0,13.85-5.83,20,20,0,0,0,5.61-14.44,19.55,19.55,0,0,0-20-20Z"/></g></g></svg>